<svg id="Layer_1" data-name="Layer 1" xmlns="http://www.w3.org/2000/svg" viewBox="0 0 260.61 392.7"><defs><style>.cls-1{fill:#e77051;}.cls-2{fill:#e9c369;}.cls-3{fill:#debb64;}.cls-4{fill:#f4a262;}.cls-5{fill:#edd088;}.cls-6{fill:#f2dca7;}.cls-11,.cls-13,.cls-17,.cls-7,.cls-8{fill:none;stroke-miterlimit:10;}.cls-7,.cls-8{stroke:#c07c4e;}.cls-17,.cls-7{stroke-width:3px;}.cls-8{stroke-width:2px;}.cls-9{fill:#f4ad7e;}.cls-10,.cls-12{fill:#274653;}.cls-10,.cls-11{opacity:0.3;}.cls-11{stroke:#1e383f;stroke-width:4px;}.cls-11,.cls-12{fill-rule:evenodd;}.cls-13{stroke:#010101;stroke-width:8px;}.cls-14{fill:#231f20;}.cls-15{fill:#ef3960;}.cls-16{fill:#fff;}.cls-17{stroke:#fff;}</style></defs><ellipse class="cls-1" cx="23.14" cy="219.21" rx="18.13" ry="50.12" transform="translate(-63.57 16.37) rotate(-17.02)"/><ellipse class="cls-1" cx="233.9" cy="217.3" rx="50.12" ry="18.13" transform="translate(-42.77 377.37) rotate(-72.98)"/><path class="cls-2" d="M260.89,139.83c-.87,15.3-5.89,27.35-9.8,37a166.69,166.69,0,0,1-8,17l.06-1c1.69-10.46,4.93-39.47-12.06-66-21.42-33.4-60.07-39.52-82-43-20.22-3.21-53.51-8.48-85,11-46.72,28.91-49.77,87.78-50,94q-.84-3.44-1.86-7.06c-.69-2.41-1.39-4.75-2.12-7C-42.27,20.35,253-69.88,241,67.94c-2.53,14.36,10.16,17.76,17.07,42.92A95.56,95.56,0,0,1,260.89,139.83Z" transform="translate(-0.43 0)"/><path class="cls-3" d="M243.15,192.82c-1.93,0,2.89-32.72-11.79-65.69a139.65,139.65,0,0,0-26.27-39.27c-10.73-3-20.66,0-38.23-5.75-26.09-8.59-45.26-9.76-59.92-8.4a124,124,0,0,0-23,4.36c-30.75,9.44-57.27,54.58-69.82,112.79A135,135,0,0,1,14,172.08a131.36,131.36,0,0,1,3.22-21.91c8.59-36.07,33.91-60.31,33.91-60.31,43-32.57,70-34.7,87-30,15.11,4.18,25.07,14.52,47,14,0,0,22.63-.54,31,5a20.56,20.56,0,0,1,8,10h0a73.28,73.28,0,0,0,5,9c1.45,2.14,2.67,3.59,3,4,3,3.65,7.44,12.65,11,27,3,12,3,21.27,3,33C246.07,176,244.64,192.81,243.15,192.82Z" transform="translate(-0.43 0)"/><path class="cls-4" d="M243.15,192.82l-.06,1c-.21,6.54-.7,16.27-2,28-1.38,12.43-2.76,25.3-5.53,38.47a0,0,0,0,1,0,0,166.3,166.3,0,0,1-8.78,17.27,228.78,228.78,0,0,1-14.33,21c-13.81,19.09-18.08,18.82-29.68,37.6-10.91,17.65-11.84,25.49-22.52,31.5-9.95,5.6-21.74,5.88-30.71,6.1l-.84,0c-11.07.22-23.54.47-31.61-4-.26-.15-.47-.3-.64-.41a46.18,46.18,0,0,1-10.36-9.59c-2.6-3.33-2.58-4.43-7-13-4.85-9.42-7.28-14.14-10-17a100.55,100.55,0,0,0-11-10.27h0l-1.54-1.23c-6.7-5.36-16.21-18-29.6-48.27-.46-1.34-.9-2.68-1.33-4-1.71-5.32-3.23-10.81-4.73-17-1.13-4.67-2.82-18.5-4.23-31.75-1.23-11.47-2.25-22.49-2.54-26.78-.05-.8-.07-1.37-.07-1.66,6.81-30.8,17.52-58.23,30.84-78.24,11.36-17.11,24.64-28.8,39-32.55a157.65,157.65,0,0,1,16.46-3.57c1.3-.19,2.63-.37,4-.53l.56-.06.82-.09c1.26-.13,2.56-.24,3.89-.33.76,0,1.54-.1,2.32-.13,14-.66,31.68,1.11,54.89,8.75,17.57,5.79,27.5,2.79,38.23,5.75a139.65,139.65,0,0,1,26.27,39.27c.08.18.16.35.23.53h0l.43,1A141.39,141.39,0,0,1,243.15,192.82Z" transform="translate(-0.43 0)"/><path class="cls-1" d="M41.23,170.07c6.68-10.2,16.15-14.44,28.23-12.34,11.69,2,23.15,6.92,33.65,12.29,6.81,3.48,12.84-6.79,6-10.28C96,153,81,146.51,66.11,145.39S39,151.79,31,164.06c-4.2,6.44,6.1,12.41,10.28,6Z" transform="translate(-0.43 0)"/><path class="cls-1" d="M237.35,165.92c-8-12.27-20.14-19.79-35.16-18.67s-29.84,7.62-43,14.35c-6.82,3.49-.8,13.76,6,10.28,10.5-5.37,22-10.26,33.64-12.29,12.09-2.1,21.56,2.13,28.23,12.34,4.18,6.39,14.49.43,10.29-6Z" transform="translate(-0.43 0)"/><ellipse class="cls-5" cx="186.39" cy="29.52" rx="20.58" ry="42.5" transform="translate(111.42 202.9) rotate(-75.74)"/><ellipse class="cls-6" cx="194.98" cy="26.18" rx="10.98" ry="20.45" transform="translate(121.13 208.7) rotate(-75.74)"/><path class="cls-4" d="M105.09,362.86Z" transform="translate(-0.43 0)"/><path class="cls-4" d="M199.09,416.86Z" transform="translate(-0.43 0)"/><path class="cls-2" d="M235.56,260.35a166.1,166.1,0,0,1-11.47,35.51c-7.15,15.56-7.23,8.71-22,35-17.93,31.91-20.49,46.77-37,55-7.9,3.94-16.31,5-24,6a96.69,96.69,0,0,1-32-1c-6.5-1.41-13.52-2.92-20-7-11.47-7.24-11.15-16.17-22-38-11.68-23.5-24.85-38.87-32-55C31.2,282.08,28,273,28,273c-3.1-8.49-6.42-17.92-5.9-18.13,1.08-.44,18,38,18,38s6.82,10.63,15,21a101.12,101.12,0,0,0,8.44,9.58l.31.28c1.48,1.35,2.59,2.44,3.53,3.38,2.15,2.13,3.23,3.2,3.72,3.76,0,0,1.31,1.5,2.59,3.31,3.45,4.9,8.34,16.83,12.41,22.69a39.11,39.11,0,0,0,16,13c9.82,4.33,21.15,4.12,26.61,4l.84,0c9-.22,20.76-.5,30.71-6.1,10.68-6,11.61-13.85,22.52-31.5,11.6-18.78,15.87-18.51,29.68-37.6a228.78,228.78,0,0,0,14.33-21A166.3,166.3,0,0,0,235.56,260.35Z" transform="translate(-0.43 0)"/><path class="cls-2" d="M17.09,352.86" transform="translate(-0.43 0)"/><path class="cls-2" d="M13.09,395.86" transform="translate(-0.43 0)"/><path class="cls-2" d="M136,291.92c-13.72-1.8-28.65-2.2-42.18,1.24-11.76,3-18.32,11.58-20.93,23.2a63.55,63.55,0,0,0-.95,22.42c1,7.14,3.9,13.66,5,20.72,1,6.48,6,11.53,10.33,16.13,5,5.27,10.89,9.6,18.08,11.24,4.82,1.1,9.65-4.16,6.73-8.74-6.43-10.08-13-20.1-21.36-28.72l-7.21,9.35a104,104,0,0,0,46,18.25l1.59-11.7c-7.25.37-14.52.74-21.66-.77l-1.58,11.69c15.88.27,32.37,1.42,47.83-3a53.94,53.94,0,0,0,19.59-9.91c6.09-5,9-12.56,13-19.14,7.07-11.51,13.28-23.63,13.25-37.5,0-5.1-1-10.9-4.71-14.68-5.08-5.12-12-3.8-18.22-1.87-14.27,4.45-28.81,4.32-43.42,1.4-7.48-1.5-10.68,10-3.16,11.48,14.27,2.86,28.92,3.73,43.2.44,3.26-.76,6.39-2,9.64-2.78,2.67-.65,3.55-1,4.35,1.77,1.62,5.67-.32,12.79-2.07,18.17-2.43,7.42-7,13.79-10.9,20.44-2.1,3.55-3.7,7.79-6.33,11s-6.61,5.41-10.31,7.14c-15.88,7.39-34.76,5.43-51.75,5.15-6.59-.11-8.26,10.28-1.58,11.69,8.24,1.74,16.45,1.62,24.82,1.2,6.28-.32,8.57-10.73,1.58-11.69a96.57,96.57,0,0,1-43.12-17c-5.65-4-11.79,4.63-7.22,9.35,7.66,7.9,13.6,17.06,19.5,26.3l6.72-8.74c-5.56-1.27-9.57-4.67-13.37-8.76a46.65,46.65,0,0,1-5.48-6.44c-1.31-2.09-1.11-4.33-1.58-6.68-1.15-5.83-3.82-11.11-4.53-17.1a50.89,50.89,0,0,1,1.24-18.6c2.47-9.59,7.77-12.72,17.13-14.15,11.25-1.71,22.84-1.31,34.08.17,3.22.42,5.93-3,6-5.95,0-3.57-2.78-5.54-6-6Z" transform="translate(-0.43 0)"/><path class="cls-7" d="M118.2,182.21a285.29,285.29,0,0,1-5.27,51.73c-.42,2.12-.88,5.2-1.91,8.75-2.53,8.7-6.09,13.68-8.39,16.32" transform="translate(-0.43 0)"/><path class="cls-7" d="M146.92,192.73c-2.35,12-4.21,32.36,4.74,54.59a95,95,0,0,0,8.54,16.36" transform="translate(-0.43 0)"/><path class="cls-8" d="M151.18,271.42a12.53,12.53,0,0,0-7.41,3.42c-2,2-1.85,3.49-3.91,5.5a13.36,13.36,0,0,1-8.31,3.38c-1.37.13-6,.56-9.8-2.38-3.24-2.51-2.71-5.06-5.9-7.87a14,14,0,0,0-8-3.23" transform="translate(-0.43 0)"/><path class="cls-7" d="M102.64,258.93c-4,2.62-5.9,6.92-4.86,10.66,1.41,5.06,8.1,8.69,15.06,7" transform="translate(-0.43 0)"/><path class="cls-7" d="M159.28,262.27a10,10,0,0,1,2,10.12c-1.88,4.59-7.92,7.38-14,5.67" transform="translate(-0.43 0)"/><ellipse class="cls-9" cx="128.72" cy="268.38" rx="7.76" ry="4.83" transform="translate(-13.81 6.84) rotate(-2.89)"/><path class="cls-7" d="M119.36,182.26A285.37,285.37,0,0,1,114.09,234c-.42,2.11-.88,5.19-1.91,8.74-2.53,8.7-6.09,13.69-8.39,16.32" transform="translate(-0.43 0)"/><path class="cls-7" d="M148.08,192.77c-2.35,12-4.21,32.37,4.74,54.6a94.84,94.84,0,0,0,8.54,16.35" transform="translate(-0.43 0)"/><path class="cls-8" d="M152.33,271.46a12.61,12.61,0,0,0-7.4,3.43c-2,2-1.85,3.49-3.91,5.49a13.36,13.36,0,0,1-8.31,3.38c-1.37.13-6,.56-9.8-2.38-3.24-2.51-2.71-5.05-5.9-7.86a14,14,0,0,0-8-3.24" transform="translate(-0.43 0)"/><path class="cls-7" d="M103.8,259c-4,2.63-5.9,6.92-4.86,10.67,1.41,5.05,8.1,8.69,15.06,7" transform="translate(-0.43 0)"/><path class="cls-7" d="M160.44,262.32a10,10,0,0,1,2,10.11c-1.88,4.6-7.92,7.38-14,5.67" transform="translate(-0.43 0)"/><ellipse class="cls-9" cx="129.88" cy="268.42" rx="7.76" ry="4.83" transform="translate(-13.81 6.9) rotate(-2.89)"/><path class="cls-10" d="M238.09,198.86c-.05,3.74-.65,20-13,31-15.44,13.78-40.53,11.58-56-1-17.92-14.58-16.69-38-16.51-40.55l-5.49-2.45a126.75,126.75,0,0,1,1,14c.12,7.41-.48,9.52,0,14,.24,2.24,1.11,10.27,6,17,6.37,8.76,16.48,11,25,13a64.08,64.08,0,0,0,23,1c7.34-.85,17.81-2.05,26-8,17.49-12.69,15.27-40.18,15-43Z" transform="translate(-0.43 0)"/><path class="cls-10" d="M108.12,197.57c-2.58,13.75-5.67,25.78-15.23,31.73-12.08,7.5-42.35,7.41-53.41-2.28-7.17-6.29-10.53-23.94-9.84-36.94l-15.55-1.22.43.19q.75,5.72,1.52,11.42c2.36,11.85,3.33,30,12.64,35.78,22.67,9.94,62.46,12,76.28-5.3,4.86-6.22,8.43-14.27,10.94-22.95l0-.17,2.28-8.18q.41-1.31.87-2.58l-10.72-.84C108.29,196.7,108.2,197.15,108.12,197.57Z" transform="translate(-0.43 0)"/><path class="cls-11" d="M154.42,203.07c2.61,12.9,5.74,24.2,15.44,29.78,12.25,7,42.94,7,54.16-2.14,9.5-7.71,12.42-33.66,8.16-44.26-2.62-6.57-10.15-10-17.75-11.6l-8.5-1c-21.33.21-42.54,2.58-51.48,14.47C151.92,191.68,153.54,198.78,154.42,203.07Z" transform="translate(-0.43 0)"/><path class="cls-11" d="M109.65,202.6c-2.84,13.82-6.24,25.91-16.78,31.89C79.57,242,46.22,242,34,232.2c-10.32-8.26-13.5-36-8.87-47.39,2.85-7,11-10.72,19.28-12.43l9.24-1.06c23.17.22,46.21,2.76,55.93,15.5C112.37,190.41,110.6,198,109.65,202.6Z" transform="translate(-0.43 0)"/><path class="cls-12" d="M257,178.19c-4.53-2.43-10.23-1.57-15-3.5l-7.45-5.64c-9.33-4.66-21.8-5.78-36-5.8l-23.68,2.83-14.17,4c-3.49,1.41-5.63,4.18-9.61,5a24.69,24.69,0,0,1-4.6.57c-1.3.1-30.1.19-34.74-2.22l-12-5.72c-10.11-4-33.23-8.51-48.13-6.34-7.94,1.16-15.83,1.84-21.74,5.14q-3.16,2.37-6.32,4.75l-15.8,2.64c.08,3.42-1.32,9.26-.24,13.61l10.42,4.39c.48,3.46,1,6.93,1.46,10.39,2.28,10.78,3.22,27.31,12.2,32.56,21.87,9,60.26,10.94,73.6-4.83,4.69-5.66,8.13-13,10.55-20.88,2.52-8.2,4.44-20.67,16.42-19.81,14.23,1,13,11.4,16.67,22.65,2.26,7,5.12,13.36,9.18,18.63,11.19,14.52,58.54,18,75.37,5.83,6.71-4.84,12-29.28,12.54-40.93l9.9-3.72C259.51,189.53,257.77,182.2,257,178.19ZM108.23,199.64c-2.49,12.51-5.47,23.46-14.7,28.87-11.65,6.83-40.86,6.75-51.53-2.07-9-7.48-11.82-32.64-7.77-42.91,2.5-6.37,9.66-9.7,16.89-11.25l8.09-1c20.3.2,40.48,2.5,49,14C110.61,188.6,109.06,195.48,108.23,199.64ZM226.07,227.5c-7.13,6.58-37.91,7.66-49.72,3.44-13.2-4.73-23.4-27.71-19.18-40.31,3.6-10.73,19.44-15.08,29.77-15.93l10.74-.89c14.34.1,27.75,1.63,33.69,9.45C237.44,191.26,231.61,222.38,226.07,227.5Z" transform="translate(-0.43 0)"/><rect class="cls-13" x="194.33" y="190.9" width="4.4" height="22" rx="1"/><rect class="cls-13" x="68.33" y="192.9" width="4.4" height="22" rx="1"/><path class="cls-14" d="M102,313.68c7-5.67,15.53-5,26.65-4.05,8.46.69,8.49,2.07,16.42,2.84,18.08,1.74,26.76-4.61,28.7-1.22,2.64,4.6-10,22-26.8,30.32-13,6.41-24.55,5.45-30.61,4.87-9.75-.95-19.76-1.92-22.86-9.31-2-4.68-.07-10.31.58-12.3A23.56,23.56,0,0,1,102,313.68Z" transform="translate(-0.43 0)"/><path class="cls-15" d="M115.22,340.37c2.17,1.43,5.67,2.76,21-1.21,8-2.08,12-3.15,12.15-4.86.22-2.78-7.57-6.22-14.36-7.27-10.52-1.65-22.73,2.33-23.18,7.27C110.54,337.26,114.48,339.87,115.22,340.37Z" transform="translate(-0.43 0)"/><path class="cls-14" d="M94.25,324.6" transform="translate(-0.43 0)"/><rect class="cls-16" x="68.66" y="197.42" width="0.26" height="15.44"/><path class="cls-17" d="M69.09,211.86a2.07,2.07,0,0,0,.13,1,2.07,2.07,0,0,0,.13-1V198.42a2.07,2.07,0,0,0-.13-1,2.07,2.07,0,0,0-.13,1Z" transform="translate(-0.43 0)"/><rect class="cls-16" x="194.54" y="194.7" width="0.26" height="15.44"/><path class="cls-17" d="M195,209.14a2.07,2.07,0,0,0,.13,1,2.07,2.07,0,0,0,.13-1V195.7a2.07,2.07,0,0,0-.13-1,2.07,2.07,0,0,0-.13,1Z" transform="translate(-0.43 0)"/></svg>