<svg xmlns="http://www.w3.org/2000/svg" xmlns:xlink="http://www.w3.org/1999/xlink" viewBox="0 0 1498 906"><defs><style>.cls-1{fill:url(#linear-gradient);}.cls-2{fill:#1985c3;}.cls-3{fill:url(#linear-gradient-2);}.cls-4,.cls-5{stroke-miterlimit:10;}.cls-4{fill:url(#linear-gradient-3);stroke:url(#linear-gradient-4);}.cls-5{fill:url(#linear-gradient-5);stroke:url(#linear-gradient-6);}.cls-6{fill:url(#linear-gradient-7);}</style><linearGradient id="linear-gradient" x1="169.52" y1="-204.48" x2="1236.52" y2="862.52" gradientUnits="userSpaceOnUse"><stop offset="0" stop-color="#c2ebff"/><stop offset="0.53" stop-color="#84d5ff"/><stop offset="1" stop-color="#5cc8ff"/></linearGradient><linearGradient id="linear-gradient-2" x1="34.3" y1="336.34" x2="1304.78" y2="1069.85" gradientUnits="userSpaceOnUse"><stop offset="0.05" stop-color="#10567e"/><stop offset="0.75" stop-color="#093148"/></linearGradient><linearGradient id="linear-gradient-3" x1="1479.5" y1="477.5" x2="1479.5" y2="477.5" xlink:href="#linear-gradient-2"/><linearGradient id="linear-gradient-4" x1="1479.5" y1="477.5" x2="1479.5" y2="477.5" gradientUnits="userSpaceOnUse"><stop offset="0.05" stop-color="#1a87c7"/><stop offset="0.14" stop-color="#1985c3"/><stop offset="0.67" stop-color="#156fa2"/><stop offset="0.97" stop-color="#146c9d"/></linearGradient><linearGradient id="linear-gradient-5" x1="1480.5" y1="513.5" x2="1480.5" y2="513.5" xlink:href="#linear-gradient-2"/><linearGradient id="linear-gradient-6" x1="1480.5" y1="513.5" x2="1480.5" y2="513.5" xlink:href="#linear-gradient-4"/><linearGradient id="linear-gradient-7" x1="117.13" y1="93.24" x2="325.87" y2="213.76" gradientUnits="userSpaceOnUse"><stop offset="0.05" stop-color="#c9e7f8" stop-opacity="0.6"/><stop offset="0.75" stop-color="#f3ca40" stop-opacity="0.4"/></linearGradient></defs><g id="Layer_1" data-name="Layer 1"><rect class="cls-1" x="75" width="1366" height="768"/></g><g id="Background_Mountains_1" data-name="Background Mountains 1"><path class="cls-2" d="M-75,618.25l20.29-15.47,18.64-9.41,20.84-17.77,29.61-20.91,23-24,17.55-24,25.22,6.27,24.13-23,45,8.37,11.08-8.37,16.34-25.08,13.16-24.05L203,421.94h34.53l34.55-27.18,24,7.84,15.48,11L332.4,430.3l7.68-16.72,13.22-11,20.77,16.2L398.2,424l25.63-21.43,18.63-7.84,23.73,12.54,17.54,17.77,20.84,17.78,29.61,14.63,25.22,27.18L577,483.61l19.74-24,25.22-30.31,9.87-22,24.13,5.23L674,382.32,684.42,353l11-25.09,15.36,10.45L740.35,308l26.32,12.54q17.54,17.77,35.09,35.54l35.09,22,37.29,73.17,45,55.4,24.12-4.18,34-19.86,18.64,21.95,30.71-56.45,30.7-45.47a184.25,184.25,0,0,1,36.19-31.88,64.49,64.49,0,0,1,38.38,7.32l50.45-45,48.25-11.5,57,54.36a155.64,155.64,0,0,0,34.21,35.69,160.77,160.77,0,0,0,27.2,16.57l34-3.14,39.48-12.54q.27,195.74.55,391.47H-75Z" transform="translate(75)"/></g><g id="Background_M_2" data-name="Background M 2"><path class="cls-3" d="M-37,459.83l32.07,11.06L8.74,478.5l31.55,32.59L91.81,560l25.24,13,47.32,26.07,24.18,5.43h26.91l25.67-13,29.44-14.13L307,532l19-24,21-16c21.67-4,129.28-50.25,134-58,9.73,10.93,65.45,70.45,82.94,88l36.87,10.22,37.79,16.94,21,12L690.12,573l35.76-8.69,41-25,30.5-22.82,39.49-27.7,42.11-29,22.5-16.1L918.3,435l23.14,7.61,33.64,35.85,35.76,50,28.39-17.38,20-21.73q7.88-18.47,15.77-36.93,14.71-17.94,29.44-35.86l32.6-21.72,48.37-4.35q14.74,9.78,30.49,19.56,22.53,14,44.17,26.07l47.31,59.75,17.88,5.43,29.44,2.18,25.24-1.09L1402,517.61q-2,68-3,137.77-1.71,128.05.33,250.62H-37Z" transform="translate(75)"/><path class="cls-4" d="M1479.5,477.5" transform="translate(75)"/><path class="cls-5" d="M1480.5,513.5" transform="translate(75)"/></g><g id="Sun"><circle class="cls-6" cx="221.5" cy="153.5" r="120.5"/></g></svg>